<svg xmlns="http://www.w3.org/2000/svg" width="13.053" height="11.613" viewBox="0 0 13.053 11.613"><defs><style>.a{fill:#e3e3e3;}</style></defs><path class="a" d="M12.018,1.136A3.51,3.51,0,0,0,9.407,0,3.284,3.284,0,0,0,7.356.708a4.2,4.2,0,0,0-.829.866A4.194,4.194,0,0,0,5.7.708,3.283,3.283,0,0,0,3.646,0,3.51,3.51,0,0,0,1.035,1.136,4.08,4.08,0,0,0,0,3.923,4.858,4.858,0,0,0,1.295,7.1a27.6,27.6,0,0,0,3.241,3.042c.449.383.958.817,1.487,1.279a.766.766,0,0,0,1.009,0c.529-.462,1.038-.9,1.487-1.279A27.592,27.592,0,0,0,11.758,7.1a4.858,4.858,0,0,0,1.295-3.18A4.08,4.08,0,0,0,12.018,1.136Zm0,0"/></svg>